# xmcd
#
# Track frame offsets:
#	150
#	3111
#	17584
#	37433
#	59705
#	77245
#	94381
#	112541
#	128713
#	174432
#	194023
#	206600
#	228893
#	270785
#	292310
#
# Disc length: 4083 seconds
#
# Revision: 0
# Processed by: cddbd v1.5.1PL2 Copyright (c) Steve Scherf et al.
# Submitted via: EasyCDDAExtractor 8.0.2.1
#
DISCID=ce0ff10f
DTITLE=Dio - Thomas and Mack Arena Las Vegas 25-11-84
DYEAR=1984
DGENRE=Hard Rock
TTITLE0=Intro
TTITLE1=Stand Up And Shout
TTITLE2=One Night In The City
TTITLE3=Don't Talk To Strangers
TTITLE4=Mystery
TTITLE5=Egypt (The Chains Are On)
TTITLE6=Holy Diver
TTITLE7=Drum Solo
TTITLE8=Heaven and Hell
TTITLE9=The Last In Line
TTITLE10=Heaven and Hell Reprise
TTITLE11=Rainbow In The Dark
TTITLE12=Man On The Silver Mountain - Long Live Rock and Roll
TTITLE13=We Rock
TTITLE14=The Mob Rules
EXTD=
EXTT0=
EXTT1=
EXTT2=
EXTT3=
EXTT4=
EXTT5=
EXTT6=
EXTT7=
EXTT8=
EXTT9=
EXTT10=
EXTT11=
EXTT12=
EXTT13=
EXTT14=
PLAYORDER=
